<?xml version="1.0" encoding="UTF-8" standalone="no"?>
<!DOCTYPE svg PUBLIC "-//W3C//DTD SVG 1.1//EN"
 "http://www.w3.org/Graphics/SVG/1.1/DTD/svg11.dtd">
<!-- Generated by graphviz version 2.40.1 (20161225.0304)
 -->
<!-- Title: workflow Pages: 1 -->
<svg width="1131pt" height="527pt"
 viewBox="0.00 0.00 1131.00 527.20" xmlns="http://www.w3.org/2000/svg" xmlns:xlink="http://www.w3.org/1999/xlink">
<g id="graph0" class="graph" transform="scale(1 1) rotate(0) translate(4 523.2)">
<title>workflow</title>
<polygon fill="#ffffff" stroke="transparent" points="-4,4 -4,-523.2 1127,-523.2 1127,4 -4,4"/>
<g id="clust1" class="cluster">
<title>cluster_0</title>
<polygon fill="none" stroke="#000000" points="426,-298.4 426,-511.2 644,-511.2 644,-298.4 426,-298.4"/>
</g>
<g id="clust2" class="cluster">
<title>cluster_1</title>
<polygon fill="none" stroke="#000000" points="8,-225.6 8,-278.4 1115,-278.4 1115,-225.6 8,-225.6"/>
</g>
<g id="clust3" class="cluster">
<title>cluster_2</title>
<polygon fill="none" stroke="#000000" points="49,-152.8 49,-205.6 1021,-205.6 1021,-152.8 49,-152.8"/>
</g>
<g id="clust4" class="cluster">
<title>cluster_3</title>
<polygon fill="none" stroke="#000000" points="437,-8 437,-132.8 633,-132.8 633,-8 437,-8"/>
</g>
<!-- create_dirs -->
<g id="node1" class="node">
<title>create_dirs</title>
<polygon fill="#add8e6" stroke="#000000" points="635.8679,-503.1005 434.1321,-503.1005 434.1321,-466.4995 635.8679,-466.4995 635.8679,-503.1005"/>
<text text-anchor="middle" x="535" y="-488.4" font-family="Helvetica,sans-Serif" font-size="12.00" fill="#000000">Create database directories</text>
<text text-anchor="middle" x="535" y="-474" font-family="Helvetica,sans-Serif" font-size="12.00" fill="#000000">(kegg, cazy, merops, iprscan, 16S)</text>
</g>
<!-- conda_env -->
<g id="node2" class="node">
<title>conda_env</title>
<polygon fill="#add8e6" stroke="#000000" points="625,-430.3005 445,-430.3005 445,-393.6995 625,-393.6995 625,-430.3005"/>
<text text-anchor="middle" x="535" y="-415.6" font-family="Helvetica,sans-Serif" font-size="12.00" fill="#000000">Create conda environment</text>
<text text-anchor="middle" x="535" y="-401.2" font-family="Helvetica,sans-Serif" font-size="12.00" fill="#000000">(rbimsenv)</text>
</g>
<!-- create_dirs&#45;&gt;conda_env -->
<g id="edge1" class="edge">
<title>create_dirs&#45;&gt;conda_env</title>
<path fill="none" stroke="#000000" d="M535,-466.4295C535,-458.5836 535,-449.2426 535,-440.5328"/>
<polygon fill="#000000" stroke="#000000" points="538.5001,-440.3646 535,-430.3646 531.5001,-440.3647 538.5001,-440.3646"/>
</g>
<!-- install_tools -->
<g id="node3" class="node">
<title>install_tools</title>
<polygon fill="#add8e6" stroke="#000000" points="625,-357.7004 445,-357.7004 445,-306.2996 625,-306.2996 625,-357.7004"/>
<text text-anchor="middle" x="535" y="-342.8" font-family="Helvetica,sans-Serif" font-size="12.00" fill="#000000">Install tools:</text>
<text text-anchor="middle" x="535" y="-328.4" font-family="Helvetica,sans-Serif" font-size="12.00" fill="#000000">KofamScan, dbCAN,</text>
<text text-anchor="middle" x="535" y="-314" font-family="Helvetica,sans-Serif" font-size="12.00" fill="#000000">InterProScan, PICRUSt2</text>
</g>
<!-- conda_env&#45;&gt;install_tools -->
<g id="edge2" class="edge">
<title>conda_env&#45;&gt;install_tools</title>
<path fill="none" stroke="#000000" d="M535,-393.4453C535,-385.8148 535,-376.7062 535,-367.8693"/>
<polygon fill="#000000" stroke="#000000" points="538.5001,-367.7252 535,-357.7253 531.5001,-367.7253 538.5001,-367.7252"/>
</g>
<!-- kofam_db -->
<g id="node4" class="node">
<title>kofam_db</title>
<polygon fill="#ffd700" stroke="#000000" points="1107.2282,-270 900.7718,-270 900.7718,-234 1107.2282,-234 1107.2282,-270"/>
<text text-anchor="middle" x="1004" y="-248.4" font-family="Helvetica,sans-Serif" font-size="12.00" fill="#000000">Download &amp; config Kofam database</text>
</g>
<!-- install_tools&#45;&gt;kofam_db -->
<g id="edge3" class="edge">
<title>install_tools&#45;&gt;kofam_db</title>
<path fill="none" stroke="#000000" d="M625.1073,-320.6646C697.7193,-311.0126 802.2981,-295.9433 893,-278.4 902.5538,-276.5521 912.5284,-274.4413 922.4104,-272.2365"/>
<polygon fill="#000000" stroke="#000000" points="923.2644,-275.6318 932.2426,-270.0066 921.7161,-268.8052 923.2644,-275.6318"/>
</g>
<!-- dbcan_db -->
<g id="node5" class="node">
<title>dbcan_db</title>
<polygon fill="#ffd700" stroke="#000000" points="886.2317,-270 643.7683,-270 643.7683,-234 886.2317,-234 886.2317,-270"/>
<text text-anchor="middle" x="765" y="-248.4" font-family="Helvetica,sans-Serif" font-size="12.00" fill="#000000">Download, build &amp; config dbCAN database</text>
</g>
<!-- install_tools&#45;&gt;dbcan_db -->
<g id="edge4" class="edge">
<title>install_tools&#45;&gt;dbcan_db</title>
<path fill="none" stroke="#000000" d="M608.7225,-306.3574C639.2974,-295.7226 674.3606,-283.5267 703.5171,-273.3854"/>
<polygon fill="#000000" stroke="#000000" points="704.8683,-276.6211 713.1634,-270.0301 702.5686,-270.0096 704.8683,-276.6211"/>
</g>
<!-- merops_db -->
<g id="node6" class="node">
<title>merops_db</title>
<polygon fill="#ffd700" stroke="#000000" points="630.0276,-270.3005 439.9724,-270.3005 439.9724,-233.6995 630.0276,-233.6995 630.0276,-270.3005"/>
<text text-anchor="middle" x="535" y="-255.6" font-family="Helvetica,sans-Serif" font-size="12.00" fill="#000000">Download MEROPS protease.lib</text>
<text text-anchor="middle" x="535" y="-241.2" font-family="Helvetica,sans-Serif" font-size="12.00" fill="#000000">+ makeblastdb</text>
</g>
<!-- install_tools&#45;&gt;merops_db -->
<g id="edge5" class="edge">
<title>install_tools&#45;&gt;merops_db</title>
<path fill="none" stroke="#000000" d="M535,-306.2471C535,-298.0253 535,-288.8797 535,-280.4761"/>
<polygon fill="#000000" stroke="#000000" points="538.5001,-280.3536 535,-270.3536 531.5001,-280.3537 538.5001,-280.3536"/>
</g>
<!-- iprscan_db -->
<g id="node7" class="node">
<title>iprscan_db</title>
<polygon fill="#ffd700" stroke="#000000" points="426.0604,-270 209.9396,-270 209.9396,-234 426.0604,-234 426.0604,-270"/>
<text text-anchor="middle" x="318" y="-248.4" font-family="Helvetica,sans-Serif" font-size="12.00" fill="#000000">Download &amp; config InterProScan data</text>
</g>
<!-- install_tools&#45;&gt;iprscan_db -->
<g id="edge6" class="edge">
<title>install_tools&#45;&gt;iprscan_db</title>
<path fill="none" stroke="#000000" d="M465.4444,-306.3574C436.7231,-295.7689 403.8039,-283.6328 376.3669,-273.5178"/>
<polygon fill="#000000" stroke="#000000" points="377.5001,-270.2053 366.9067,-270.0301 375.0787,-276.7732 377.5001,-270.2053"/>
</g>
<!-- qiime_data -->
<g id="node8" class="node">
<title>qiime_data</title>
<polygon fill="#ffd700" stroke="#000000" points="196,-270.3005 16,-270.3005 16,-233.6995 196,-233.6995 196,-270.3005"/>
<text text-anchor="middle" x="106" y="-255.6" font-family="Helvetica,sans-Serif" font-size="12.00" fill="#000000">Export QIIME2 data</text>
<text text-anchor="middle" x="106" y="-241.2" font-family="Helvetica,sans-Serif" font-size="12.00" fill="#000000">(FeatureTable + Seqs)</text>
</g>
<!-- install_tools&#45;&gt;qiime_data -->
<g id="edge7" class="edge">
<title>install_tools&#45;&gt;qiime_data</title>
<path fill="none" stroke="#000000" d="M444.6881,-320.0509C377.6497,-310.5445 284.1779,-295.9484 203,-278.4 195.3835,-276.7535 187.4732,-274.8783 179.6033,-272.9043"/>
<polygon fill="#000000" stroke="#000000" points="180.2374,-269.4537 169.6814,-270.3607 178.499,-276.2344 180.2374,-269.4537"/>
</g>
<!-- kofam -->
<g id="node9" class="node">
<title>kofam</title>
<polygon fill="#ab82ff" stroke="#000000" points="1013,-197.2 833,-197.2 833,-161.2 1013,-161.2 1013,-197.2"/>
<text text-anchor="middle" x="923" y="-175.6" font-family="Helvetica,sans-Serif" font-size="12.00" fill="#000000">Run KofamScan</text>
</g>
<!-- kofam_db&#45;&gt;kofam -->
<g id="edge8" class="edge">
<title>kofam_db&#45;&gt;kofam</title>
<path fill="none" stroke="#000000" d="M983.5603,-233.6295C973.6041,-224.6812 961.4841,-213.7882 950.7099,-204.1047"/>
<polygon fill="#000000" stroke="#000000" points="952.9297,-201.3939 943.1526,-197.3124 948.2505,-206.6002 952.9297,-201.3939"/>
</g>
<!-- dbcan -->
<g id="node10" class="node">
<title>dbcan</title>
<polygon fill="#ab82ff" stroke="#000000" points="819,-197.2 639,-197.2 639,-161.2 819,-161.2 819,-197.2"/>
<text text-anchor="middle" x="729" y="-175.6" font-family="Helvetica,sans-Serif" font-size="12.00" fill="#000000">Run dbCAN</text>
</g>
<!-- dbcan_db&#45;&gt;dbcan -->
<g id="edge9" class="edge">
<title>dbcan_db&#45;&gt;dbcan</title>
<path fill="none" stroke="#000000" d="M755.9157,-233.6295C751.8344,-225.3762 746.935,-215.4686 742.4414,-206.3814"/>
<polygon fill="#000000" stroke="#000000" points="745.5268,-204.7249 737.9567,-197.3124 739.2521,-207.8278 745.5268,-204.7249"/>
</g>
<!-- merops -->
<g id="node11" class="node">
<title>merops</title>
<polygon fill="#ab82ff" stroke="#000000" points="625,-197.2 445,-197.2 445,-161.2 625,-161.2 625,-197.2"/>
<text text-anchor="middle" x="535" y="-175.6" font-family="Helvetica,sans-Serif" font-size="12.00" fill="#000000">Run MEROPS (BLASTp)</text>
</g>
<!-- merops_db&#45;&gt;merops -->
<g id="edge10" class="edge">
<title>merops_db&#45;&gt;merops</title>
<path fill="none" stroke="#000000" d="M535,-233.6295C535,-225.7237 535,-216.3 535,-207.5335"/>
<polygon fill="#000000" stroke="#000000" points="538.5001,-207.3124 535,-197.3124 531.5001,-207.3125 538.5001,-207.3124"/>
</g>
<!-- interpro -->
<g id="node12" class="node">
<title>interpro</title>
<polygon fill="#ab82ff" stroke="#000000" points="431,-197.2 251,-197.2 251,-161.2 431,-161.2 431,-197.2"/>
<text text-anchor="middle" x="341" y="-175.6" font-family="Helvetica,sans-Serif" font-size="12.00" fill="#000000">Run InterProScan</text>
</g>
<!-- iprscan_db&#45;&gt;interpro -->
<g id="edge11" class="edge">
<title>iprscan_db&#45;&gt;interpro</title>
<path fill="none" stroke="#000000" d="M323.8039,-233.6295C326.3565,-225.55 329.41,-215.885 332.2308,-206.9564"/>
<polygon fill="#000000" stroke="#000000" points="335.6024,-207.9023 335.2777,-197.3124 328.9276,-205.7935 335.6024,-207.9023"/>
</g>
<!-- picrust -->
<g id="node13" class="node">
<title>picrust</title>
<polygon fill="#ab82ff" stroke="#000000" points="237,-197.5005 57,-197.5005 57,-160.8995 237,-160.8995 237,-197.5005"/>
<text text-anchor="middle" x="147" y="-182.8" font-family="Helvetica,sans-Serif" font-size="12.00" fill="#000000">Run PICRUSt2</text>
<text text-anchor="middle" x="147" y="-168.4" font-family="Helvetica,sans-Serif" font-size="12.00" fill="#000000">(16S Prediction)</text>
</g>
<!-- qiime_data&#45;&gt;picrust -->
<g id="edge12" class="edge">
<title>qiime_data&#45;&gt;picrust</title>
<path fill="none" stroke="#000000" d="M116.346,-233.6295C121.0075,-225.3525 126.6061,-215.4117 131.7358,-206.3032"/>
<polygon fill="#000000" stroke="#000000" points="134.7997,-207.9954 136.6573,-197.5646 128.7004,-204.5603 134.7997,-207.9954"/>
</g>
<!-- rbims -->
<g id="node14" class="node">
<title>rbims</title>
<polygon fill="#ffb6c1" stroke="#000000" points="625,-124.8 445,-124.8 445,-88.8 625,-88.8 625,-124.8"/>
<text text-anchor="middle" x="535" y="-103.2" font-family="Helvetica,sans-Serif" font-size="12.00" fill="#000000">Integrate annotations in RbiMs</text>
</g>
<!-- kofam&#45;&gt;rbims -->
<g id="edge13" class="edge">
<title>kofam&#45;&gt;rbims</title>
<path fill="none" stroke="#000000" d="M860.6297,-161.1508C849.1655,-158.14 837.2628,-155.2153 826,-152.8 763.0168,-139.2931 691.5769,-127.943 635.2435,-119.8965"/>
<polygon fill="#000000" stroke="#000000" points="635.6571,-116.4202 625.265,-118.4831 634.6753,-123.351 635.6571,-116.4202"/>
</g>
<!-- dbcan&#45;&gt;rbims -->
<g id="edge14" class="edge">
<title>dbcan&#45;&gt;rbims</title>
<path fill="none" stroke="#000000" d="M680.546,-161.1172C654.0424,-151.2261 621.0238,-138.9037 593.1387,-128.4971"/>
<polygon fill="#000000" stroke="#000000" points="594.1012,-125.1206 583.5086,-124.9032 591.6537,-131.6788 594.1012,-125.1206"/>
</g>
<!-- merops&#45;&gt;rbims -->
<g id="edge15" class="edge">
<title>merops&#45;&gt;rbims</title>
<path fill="none" stroke="#000000" d="M535,-160.9304C535,-153.0681 535,-143.6961 535,-134.9778"/>
<polygon fill="#000000" stroke="#000000" points="538.5001,-134.8129 535,-124.8129 531.5001,-134.813 538.5001,-134.8129"/>
</g>
<!-- interpro&#45;&gt;rbims -->
<g id="edge16" class="edge">
<title>interpro&#45;&gt;rbims</title>
<path fill="none" stroke="#000000" d="M389.454,-161.1172C415.9576,-151.2261 448.9762,-138.9037 476.8613,-128.4971"/>
<polygon fill="#000000" stroke="#000000" points="478.3463,-131.6788 486.4914,-124.9032 475.8988,-125.1206 478.3463,-131.6788"/>
</g>
<!-- picrust&#45;&gt;rbims -->
<g id="edge17" class="edge">
<title>picrust&#45;&gt;rbims</title>
<path fill="none" stroke="#000000" d="M210.4137,-160.8774C221.5552,-157.9632 233.0785,-155.1422 244,-152.8 306.9832,-139.2931 378.4231,-127.943 434.7565,-119.8965"/>
<polygon fill="#000000" stroke="#000000" points="435.3247,-123.351 444.735,-118.4831 434.3429,-116.4202 435.3247,-123.351"/>
</g>
<!-- analysis -->
<g id="node15" class="node">
<title>analysis</title>
<polygon fill="#ffb6c1" stroke="#000000" points="625,-52.7005 445,-52.7005 445,-16.0995 625,-16.0995 625,-52.7005"/>
<text text-anchor="middle" x="535" y="-38" font-family="Helvetica,sans-Serif" font-size="12.00" fill="#000000">Downstream analysis</text>
<text text-anchor="middle" x="535" y="-23.6" font-family="Helvetica,sans-Serif" font-size="12.00" fill="#000000">and visualization</text>
</g>
<!-- rbims&#45;&gt;analysis -->
<g id="edge18" class="edge">
<title>rbims&#45;&gt;analysis</title>
<path fill="none" stroke="#000000" d="M535,-88.5304C535,-80.7872 535,-71.5798 535,-62.9745"/>
<polygon fill="#000000" stroke="#000000" points="538.5001,-62.9155 535,-52.9156 531.5001,-62.9156 538.5001,-62.9155"/>
</g>
</g>
</svg>
