<?xml version="1.0" encoding="UTF-8" standalone="no"?>
<!DOCTYPE svg PUBLIC "-//W3C//DTD SVG 1.1//EN"
 "http://www.w3.org/Graphics/SVG/1.1/DTD/svg11.dtd">
<!-- Generated by graphviz version 2.40.1 (20161225.0304)
 -->
<!-- Title: workflow Pages: 1 -->
<svg width="958pt" height="590pt"
 viewBox="0.00 0.00 958.00 589.60" xmlns="http://www.w3.org/2000/svg" xmlns:xlink="http://www.w3.org/1999/xlink">
<g id="graph0" class="graph" transform="scale(1 1) rotate(0) translate(4 585.6)">
<title>workflow</title>
<polygon fill="#ffffff" stroke="transparent" points="-4,4 -4,-585.6 954,-585.6 954,4 -4,4"/>
<g id="clust1" class="cluster">
<title>cluster_0</title>
<polygon fill="#d3d3d3" stroke="#d3d3d3" points="328,-336 328,-573.6 622,-573.6 622,-336 328,-336"/>
<text text-anchor="middle" x="475" y="-557" font-family="Times,serif" font-size="14.00" fill="#000000">Environment Setup</text>
</g>
<g id="clust2" class="cluster">
<title>cluster_1</title>
<polygon fill="#d3d3d3" stroke="#d3d3d3" points="8,-250.4 8,-328 942,-328 942,-250.4 8,-250.4"/>
<text text-anchor="middle" x="475" y="-311.4" font-family="Times,serif" font-size="14.00" fill="#000000">Database Preparation</text>
</g>
<g id="clust3" class="cluster">
<title>cluster_2</title>
<polygon fill="#d3d3d3" stroke="#d3d3d3" points="8,-165.6 8,-242.4 942,-242.4 942,-165.6 8,-165.6"/>
<text text-anchor="middle" x="475" y="-225.8" font-family="Times,serif" font-size="14.00" fill="#000000">Annotation Workflows</text>
</g>
<g id="clust4" class="cluster">
<title>cluster_3</title>
<polygon fill="#d3d3d3" stroke="#d3d3d3" points="359,-8 359,-157.6 591,-157.6 591,-8 359,-8"/>
<text text-anchor="middle" x="475" y="-141" font-family="Times,serif" font-size="14.00" fill="#000000">Integration &amp; Analysis</text>
</g>
<!-- create_dirs -->
<g id="node1" class="node">
<title>create_dirs</title>
<polygon fill="#add8e6" stroke="#000000" points="613.8554,-540.7005 336.1446,-540.7005 336.1446,-504.0995 613.8554,-504.0995 613.8554,-540.7005"/>
<text text-anchor="middle" x="475" y="-526" font-family="Helvetica,sans-Serif" font-size="12.00" fill="#000000">Create database directories</text>
<text text-anchor="middle" x="475" y="-511.6" font-family="Helvetica,sans-Serif" font-size="12.00" fill="#000000">(DBs/kegg, DBs/cazy, DBs/merops, DBs/iprscan)</text>
</g>
<!-- conda_env -->
<g id="node2" class="node">
<title>conda_env</title>
<polygon fill="#add8e6" stroke="#000000" points="583,-467.9005 367,-467.9005 367,-431.2995 583,-431.2995 583,-467.9005"/>
<text text-anchor="middle" x="475" y="-453.2" font-family="Helvetica,sans-Serif" font-size="12.00" fill="#000000">Create conda environment</text>
<text text-anchor="middle" x="475" y="-438.8" font-family="Helvetica,sans-Serif" font-size="12.00" fill="#000000">(rbimsenv)</text>
</g>
<!-- create_dirs&#45;&gt;conda_env -->
<g id="edge1" class="edge">
<title>create_dirs&#45;&gt;conda_env</title>
<path fill="none" stroke="#000000" d="M475,-504.0295C475,-496.1836 475,-486.8426 475,-478.1328"/>
<polygon fill="#000000" stroke="#000000" points="478.5001,-477.9646 475,-467.9646 471.5001,-477.9647 478.5001,-477.9646"/>
</g>
<!-- install_tools -->
<g id="node3" class="node">
<title>install_tools</title>
<polygon fill="#add8e6" stroke="#000000" points="583,-395.3004 367,-395.3004 367,-343.8996 583,-343.8996 583,-395.3004"/>
<text text-anchor="middle" x="475" y="-380.4" font-family="Helvetica,sans-Serif" font-size="12.00" fill="#000000">Install tools:</text>
<text text-anchor="middle" x="475" y="-366" font-family="Helvetica,sans-Serif" font-size="12.00" fill="#000000">KofamScan, dbCAN,</text>
<text text-anchor="middle" x="475" y="-351.6" font-family="Helvetica,sans-Serif" font-size="12.00" fill="#000000">InterProScan</text>
</g>
<!-- conda_env&#45;&gt;install_tools -->
<g id="edge2" class="edge">
<title>conda_env&#45;&gt;install_tools</title>
<path fill="none" stroke="#000000" d="M475,-431.0453C475,-423.4148 475,-414.3062 475,-405.4693"/>
<polygon fill="#000000" stroke="#000000" points="478.5001,-405.3252 475,-395.3253 471.5001,-405.3253 478.5001,-405.3252"/>
</g>
<!-- kofam_db -->
<g id="node4" class="node">
<title>kofam_db</title>
<polygon fill="#ffd700" stroke="#000000" points="934,-294.8 718,-294.8 718,-258.8 934,-258.8 934,-294.8"/>
<text text-anchor="middle" x="826" y="-273.2" font-family="Helvetica,sans-Serif" font-size="12.00" fill="#000000">Download Kofam database</text>
</g>
<!-- install_tools&#45;&gt;kofam_db -->
<g id="edge3" class="edge">
<title>install_tools&#45;&gt;kofam_db</title>
<path fill="none" stroke="#000000" d="M583.1366,-355.8477C623.1694,-349.3328 668.6226,-340.2349 709,-328 733.6764,-320.5227 760.0771,-309.2734 781.5434,-299.222"/>
<polygon fill="#000000" stroke="#000000" points="783.1999,-302.31 790.7276,-294.8545 780.1936,-295.9884 783.1999,-302.31"/>
</g>
<!-- dbcan_db -->
<g id="node5" class="node">
<title>dbcan_db</title>
<polygon fill="#ffd700" stroke="#000000" points="700,-294.8 484,-294.8 484,-258.8 700,-258.8 700,-294.8"/>
<text text-anchor="middle" x="592" y="-273.2" font-family="Helvetica,sans-Serif" font-size="12.00" fill="#000000">Download &amp; build dbCAN database</text>
</g>
<!-- install_tools&#45;&gt;dbcan_db -->
<g id="edge4" class="edge">
<title>install_tools&#45;&gt;dbcan_db</title>
<path fill="none" stroke="#000000" d="M507.2805,-343.9963C523.9842,-330.7476 544.2839,-314.6466 560.8246,-301.5271"/>
<polygon fill="#000000" stroke="#000000" points="563.433,-303.9256 569.0928,-294.9692 559.083,-298.4413 563.433,-303.9256"/>
</g>
<!-- merops_db -->
<g id="node6" class="node">
<title>merops_db</title>
<polygon fill="#ffd700" stroke="#000000" points="466,-295.1005 250,-295.1005 250,-258.4995 466,-258.4995 466,-295.1005"/>
<text text-anchor="middle" x="358" y="-280.4" font-family="Helvetica,sans-Serif" font-size="12.00" fill="#000000">Download MEROPS protease.lib</text>
<text text-anchor="middle" x="358" y="-266" font-family="Helvetica,sans-Serif" font-size="12.00" fill="#000000">+ makeblastdb</text>
</g>
<!-- install_tools&#45;&gt;merops_db -->
<g id="edge5" class="edge">
<title>install_tools&#45;&gt;merops_db</title>
<path fill="none" stroke="#000000" d="M442.7195,-343.9963C426.131,-330.8389 405.996,-314.8686 389.5181,-301.799"/>
<polygon fill="#000000" stroke="#000000" points="391.2826,-298.7312 381.2728,-295.2591 386.9326,-304.2156 391.2826,-298.7312"/>
</g>
<!-- iprscan_db -->
<g id="node7" class="node">
<title>iprscan_db</title>
<polygon fill="#ffd700" stroke="#000000" points="232,-295.1005 16,-295.1005 16,-258.4995 232,-258.4995 232,-295.1005"/>
<text text-anchor="middle" x="124" y="-280.4" font-family="Helvetica,sans-Serif" font-size="12.00" fill="#000000">Download InterProScan data</text>
<text text-anchor="middle" x="124" y="-266" font-family="Helvetica,sans-Serif" font-size="12.00" fill="#000000">(automatic with InterProScan install)</text>
</g>
<!-- install_tools&#45;&gt;iprscan_db -->
<g id="edge6" class="edge">
<title>install_tools&#45;&gt;iprscan_db</title>
<path fill="none" stroke="#000000" d="M366.8634,-355.8477C326.8306,-349.3328 281.3774,-340.2349 241,-328 216.5085,-320.5787 190.3183,-309.4417 168.9398,-299.4481"/>
<polygon fill="#000000" stroke="#000000" points="170.3208,-296.2293 159.786,-295.1023 167.3186,-302.5529 170.3208,-296.2293"/>
</g>
<!-- kofam -->
<g id="node9" class="node">
<title>kofam</title>
<polygon fill="#000000" stroke="#000000" points="934,-209.6 718,-209.6 718,-173.6 934,-173.6 934,-209.6"/>
<text text-anchor="middle" x="826" y="-188" font-family="Helvetica,sans-Serif" font-size="12.00" fill="#000000">Run KofamScan</text>
</g>
<!-- kofam_db&#45;&gt;kofam -->
<g id="edge7" class="edge">
<title>kofam_db&#45;&gt;kofam</title>
<path fill="none" stroke="#000000" d="M826,-258.7313C826,-247.4354 826,-232.6487 826,-219.8289"/>
<polygon fill="#000000" stroke="#000000" points="829.5001,-219.6426 826,-209.6427 822.5001,-219.6427 829.5001,-219.6426"/>
</g>
<!-- dbcan -->
<g id="node10" class="node">
<title>dbcan</title>
<polygon fill="#000000" stroke="#000000" points="700,-209.6 484,-209.6 484,-173.6 700,-173.6 700,-209.6"/>
<text text-anchor="middle" x="592" y="-188" font-family="Helvetica,sans-Serif" font-size="12.00" fill="#000000">Run dbCAN</text>
</g>
<!-- dbcan_db&#45;&gt;dbcan -->
<g id="edge8" class="edge">
<title>dbcan_db&#45;&gt;dbcan</title>
<path fill="none" stroke="#000000" d="M592,-258.7313C592,-247.4354 592,-232.6487 592,-219.8289"/>
<polygon fill="#000000" stroke="#000000" points="595.5001,-219.6426 592,-209.6427 588.5001,-219.6427 595.5001,-219.6426"/>
</g>
<!-- merops -->
<g id="node11" class="node">
<title>merops</title>
<polygon fill="#000000" stroke="#000000" points="466,-209.6 250,-209.6 250,-173.6 466,-173.6 466,-209.6"/>
<text text-anchor="middle" x="358" y="-188" font-family="Helvetica,sans-Serif" font-size="12.00" fill="#000000">Run MEROPS (BLASTp)</text>
</g>
<!-- merops_db&#45;&gt;merops -->
<g id="edge9" class="edge">
<title>merops_db&#45;&gt;merops</title>
<path fill="none" stroke="#000000" d="M358,-258.3129C358,-247.0716 358,-232.4903 358,-219.8279"/>
<polygon fill="#000000" stroke="#000000" points="361.5001,-219.7583 358,-209.7584 354.5001,-219.7584 361.5001,-219.7583"/>
</g>
<!-- interpro -->
<g id="node8" class="node">
<title>interpro</title>
<polygon fill="#000000" stroke="#000000" points="232,-209.6 16,-209.6 16,-173.6 232,-173.6 232,-209.6"/>
<text text-anchor="middle" x="124" y="-188" font-family="Helvetica,sans-Serif" font-size="12.00" fill="#000000">Run InterProScan</text>
</g>
<!-- iprscan_db&#45;&gt;interpro -->
<g id="edge10" class="edge">
<title>iprscan_db&#45;&gt;interpro</title>
<path fill="none" stroke="#000000" d="M124,-258.3129C124,-247.0716 124,-232.4903 124,-219.8279"/>
<polygon fill="#000000" stroke="#000000" points="127.5001,-219.7583 124,-209.7584 120.5001,-219.7584 127.5001,-219.7583"/>
</g>
<!-- rbims -->
<g id="node12" class="node">
<title>rbims</title>
<polygon fill="#ffb6c1" stroke="#000000" points="583,-124.8 367,-124.8 367,-88.8 583,-88.8 583,-124.8"/>
<text text-anchor="middle" x="475" y="-103.2" font-family="Helvetica,sans-Serif" font-size="12.00" fill="#000000">Integrate annotations in RbiMs</text>
</g>
<!-- interpro&#45;&gt;rbims -->
<g id="edge11" class="edge">
<title>interpro&#45;&gt;rbims</title>
<path fill="none" stroke="#000000" d="M198.8678,-173.5123C255.0142,-159.9476 331.9156,-141.3685 390.3067,-127.2615"/>
<polygon fill="#000000" stroke="#000000" points="391.3489,-130.6105 400.2473,-124.8599 389.705,-123.8063 391.3489,-130.6105"/>
</g>
<!-- kofam&#45;&gt;rbims -->
<g id="edge12" class="edge">
<title>kofam&#45;&gt;rbims</title>
<path fill="none" stroke="#000000" d="M751.1322,-173.5123C694.9858,-159.9476 618.0844,-141.3685 559.6933,-127.2615"/>
<polygon fill="#000000" stroke="#000000" points="560.295,-123.8063 549.7527,-124.8599 558.6511,-130.6105 560.295,-123.8063"/>
</g>
<!-- dbcan&#45;&gt;rbims -->
<g id="edge13" class="edge">
<title>dbcan&#45;&gt;rbims</title>
<path fill="none" stroke="#000000" d="M566.9006,-173.4083C549.7816,-161.0007 526.924,-144.4338 508.2877,-130.9265"/>
<polygon fill="#000000" stroke="#000000" points="510.2089,-127.9963 500.0579,-124.9616 506.1009,-133.6642 510.2089,-127.9963"/>
</g>
<!-- merops&#45;&gt;rbims -->
<g id="edge14" class="edge">
<title>merops&#45;&gt;rbims</title>
<path fill="none" stroke="#000000" d="M383.0994,-173.4083C400.2184,-161.0007 423.076,-144.4338 441.7123,-130.9265"/>
<polygon fill="#000000" stroke="#000000" points="443.8991,-133.6642 449.9421,-124.9616 439.7911,-127.9963 443.8991,-133.6642"/>
</g>
<!-- analysis -->
<g id="node13" class="node">
<title>analysis</title>
<polygon fill="#ffb6c1" stroke="#000000" points="583,-52.7005 367,-52.7005 367,-16.0995 583,-16.0995 583,-52.7005"/>
<text text-anchor="middle" x="475" y="-38" font-family="Helvetica,sans-Serif" font-size="12.00" fill="#000000">Downstream analysis</text>
<text text-anchor="middle" x="475" y="-23.6" font-family="Helvetica,sans-Serif" font-size="12.00" fill="#000000">and visualization</text>
</g>
<!-- rbims&#45;&gt;analysis -->
<g id="edge15" class="edge">
<title>rbims&#45;&gt;analysis</title>
<path fill="none" stroke="#000000" d="M475,-88.5304C475,-80.7872 475,-71.5798 475,-62.9745"/>
<polygon fill="#000000" stroke="#000000" points="478.5001,-62.9155 475,-52.9156 471.5001,-62.9156 478.5001,-62.9155"/>
</g>
</g>
</svg>
