<?xml version="1.0" encoding="UTF-8" standalone="no"?>
<!DOCTYPE svg PUBLIC "-//W3C//DTD SVG 1.1//EN"
 "http://www.w3.org/Graphics/SVG/1.1/DTD/svg11.dtd">
<!-- Generated by graphviz version 2.40.1 (20161225.0304)
 -->
<!-- Title: workflow Pages: 1 -->
<svg width="984pt" height="590pt"
 viewBox="0.00 0.00 984.00 589.60" xmlns="http://www.w3.org/2000/svg" xmlns:xlink="http://www.w3.org/1999/xlink">
<g id="graph0" class="graph" transform="scale(1 1) rotate(0) translate(4 585.6)">
<title>workflow</title>
<polygon fill="#ffffff" stroke="transparent" points="-4,4 -4,-585.6 980,-585.6 980,4 -4,4"/>
<g id="clust1" class="cluster">
<title>cluster_0</title>
</g>
<g id="clust2" class="cluster">
<title>cluster_1</title>
</g>
<g id="clust3" class="cluster">
<title>cluster_2</title>
</g>
<g id="clust4" class="cluster">
<title>cluster_3</title>
</g>
<!-- create_dirs -->
<g id="node1" class="node">
<title>create_dirs</title>
<polygon fill="#add8e6" stroke="#000000" points="619.8554,-540.7005 342.1446,-540.7005 342.1446,-504.0995 619.8554,-504.0995 619.8554,-540.7005"/>
<text text-anchor="middle" x="481" y="-526" font-family="Helvetica,sans-Serif" font-size="12.00" fill="#000000">Create database directories</text>
<text text-anchor="middle" x="481" y="-511.6" font-family="Helvetica,sans-Serif" font-size="12.00" fill="#000000">(DBs/kegg, DBs/cazy, DBs/merops, DBs/iprscan)</text>
</g>
<!-- conda_env -->
<g id="node2" class="node">
<title>conda_env</title>
<polygon fill="#add8e6" stroke="#000000" points="589,-467.9005 373,-467.9005 373,-431.2995 589,-431.2995 589,-467.9005"/>
<text text-anchor="middle" x="481" y="-453.2" font-family="Helvetica,sans-Serif" font-size="12.00" fill="#000000">Create conda environment</text>
<text text-anchor="middle" x="481" y="-438.8" font-family="Helvetica,sans-Serif" font-size="12.00" fill="#000000">(rbimsenv)</text>
</g>
<!-- create_dirs&#45;&gt;conda_env -->
<g id="edge1" class="edge">
<title>create_dirs&#45;&gt;conda_env</title>
<path fill="none" stroke="#000000" d="M481,-504.0295C481,-496.1836 481,-486.8426 481,-478.1328"/>
<polygon fill="#000000" stroke="#000000" points="484.5001,-477.9646 481,-467.9646 477.5001,-477.9647 484.5001,-477.9646"/>
</g>
<!-- install_tools -->
<g id="node3" class="node">
<title>install_tools</title>
<polygon fill="#add8e6" stroke="#000000" points="589,-395.3004 373,-395.3004 373,-343.8996 589,-343.8996 589,-395.3004"/>
<text text-anchor="middle" x="481" y="-380.4" font-family="Helvetica,sans-Serif" font-size="12.00" fill="#000000">Install tools:</text>
<text text-anchor="middle" x="481" y="-366" font-family="Helvetica,sans-Serif" font-size="12.00" fill="#000000">KofamScan, dbCAN,</text>
<text text-anchor="middle" x="481" y="-351.6" font-family="Helvetica,sans-Serif" font-size="12.00" fill="#000000">InterProScan</text>
</g>
<!-- conda_env&#45;&gt;install_tools -->
<g id="edge2" class="edge">
<title>conda_env&#45;&gt;install_tools</title>
<path fill="none" stroke="#000000" d="M481,-431.0453C481,-423.4148 481,-414.3062 481,-405.4693"/>
<polygon fill="#000000" stroke="#000000" points="484.5001,-405.3252 481,-395.3253 477.5001,-405.3253 484.5001,-405.3252"/>
</g>
<!-- kofam_db -->
<g id="node4" class="node">
<title>kofam_db</title>
<polygon fill="#ffd700" stroke="#000000" points="960,-294.8 744,-294.8 744,-258.8 960,-258.8 960,-294.8"/>
<text text-anchor="middle" x="852" y="-273.2" font-family="Helvetica,sans-Serif" font-size="12.00" fill="#000000">Download &amp; config Kofam database</text>
</g>
<!-- install_tools&#45;&gt;kofam_db -->
<g id="edge3" class="edge">
<title>install_tools&#45;&gt;kofam_db</title>
<path fill="none" stroke="#000000" d="M589.2417,-357.9493C634.8246,-351.4863 688.0774,-341.8705 735,-328 759.8193,-320.6633 786.3298,-309.3725 807.8292,-299.2588"/>
<polygon fill="#000000" stroke="#000000" points="809.511,-302.3343 817.0229,-294.8629 806.4914,-296.0191 809.511,-302.3343"/>
</g>
<!-- dbcan_db -->
<g id="node5" class="node">
<title>dbcan_db</title>
<polygon fill="#ffd700" stroke="#000000" points="726.2317,-294.8 483.7683,-294.8 483.7683,-258.8 726.2317,-258.8 726.2317,-294.8"/>
<text text-anchor="middle" x="605" y="-273.2" font-family="Helvetica,sans-Serif" font-size="12.00" fill="#000000">Download, build &amp; config dbCAN database</text>
</g>
<!-- install_tools&#45;&gt;dbcan_db -->
<g id="edge4" class="edge">
<title>install_tools&#45;&gt;dbcan_db</title>
<path fill="none" stroke="#000000" d="M515.2118,-343.9963C533.0773,-330.626 554.8241,-314.351 572.4409,-301.1668"/>
<polygon fill="#000000" stroke="#000000" points="574.8132,-303.7631 580.7222,-294.9692 570.6189,-298.1588 574.8132,-303.7631"/>
</g>
<!-- merops_db -->
<g id="node6" class="node">
<title>merops_db</title>
<polygon fill="#ffd700" stroke="#000000" points="466,-295.1005 250,-295.1005 250,-258.4995 466,-258.4995 466,-295.1005"/>
<text text-anchor="middle" x="358" y="-280.4" font-family="Helvetica,sans-Serif" font-size="12.00" fill="#000000">Download MEROPS protease.lib</text>
<text text-anchor="middle" x="358" y="-266" font-family="Helvetica,sans-Serif" font-size="12.00" fill="#000000">+ makeblastdb</text>
</g>
<!-- install_tools&#45;&gt;merops_db -->
<g id="edge5" class="edge">
<title>install_tools&#45;&gt;merops_db</title>
<path fill="none" stroke="#000000" d="M447.0641,-343.9963C429.4649,-330.7182 408.0686,-314.5753 390.6587,-301.44"/>
<polygon fill="#000000" stroke="#000000" points="392.5572,-298.488 382.4663,-295.2591 388.3412,-304.076 392.5572,-298.488"/>
</g>
<!-- iprscan_db -->
<g id="node7" class="node">
<title>iprscan_db</title>
<polygon fill="#ffd700" stroke="#000000" points="232.0604,-294.8 15.9396,-294.8 15.9396,-258.8 232.0604,-258.8 232.0604,-294.8"/>
<text text-anchor="middle" x="124" y="-273.2" font-family="Helvetica,sans-Serif" font-size="12.00" fill="#000000">Download &amp; config InterProScan data</text>
</g>
<!-- install_tools&#45;&gt;iprscan_db -->
<g id="edge6" class="edge">
<title>install_tools&#45;&gt;iprscan_db</title>
<path fill="none" stroke="#000000" d="M372.7883,-356.5048C331.0803,-349.9917 283.3195,-340.7239 241,-328 216.3076,-320.5759 189.9054,-309.3315 168.4422,-299.2696"/>
<polygon fill="#000000" stroke="#000000" points="169.7931,-296.0363 159.2597,-294.8965 166.7833,-302.3562 169.7931,-296.0363"/>
</g>
<!-- kofam -->
<g id="node9" class="node">
<title>kofam</title>
<polygon fill="#000000" stroke="#000000" points="940,-209.6 724,-209.6 724,-173.6 940,-173.6 940,-209.6"/>
<text text-anchor="middle" x="832" y="-188" font-family="Helvetica,sans-Serif" font-size="12.00" fill="#000000">Run KofamScan</text>
</g>
<!-- kofam_db&#45;&gt;kofam -->
<g id="edge7" class="edge">
<title>kofam_db&#45;&gt;kofam</title>
<path fill="none" stroke="#000000" d="M847.7585,-258.7313C845.0804,-247.3224 841.5664,-232.3527 838.5364,-219.4449"/>
<polygon fill="#000000" stroke="#000000" points="841.9281,-218.5782 836.2354,-209.6427 835.1134,-220.1779 841.9281,-218.5782"/>
</g>
<!-- dbcan -->
<g id="node10" class="node">
<title>dbcan</title>
<polygon fill="#000000" stroke="#000000" points="706,-209.6 490,-209.6 490,-173.6 706,-173.6 706,-209.6"/>
<text text-anchor="middle" x="598" y="-188" font-family="Helvetica,sans-Serif" font-size="12.00" fill="#000000">Run dbCAN</text>
</g>
<!-- dbcan_db&#45;&gt;dbcan -->
<g id="edge8" class="edge">
<title>dbcan_db&#45;&gt;dbcan</title>
<path fill="none" stroke="#000000" d="M603.5155,-258.7313C602.5874,-247.4354 601.3725,-232.6487 600.3193,-219.8289"/>
<polygon fill="#000000" stroke="#000000" points="603.7896,-219.3225 599.4824,-209.6427 596.8131,-219.8957 603.7896,-219.3225"/>
</g>
<!-- merops -->
<g id="node11" class="node">
<title>merops</title>
<polygon fill="#000000" stroke="#000000" points="472,-209.6 256,-209.6 256,-173.6 472,-173.6 472,-209.6"/>
<text text-anchor="middle" x="364" y="-188" font-family="Helvetica,sans-Serif" font-size="12.00" fill="#000000">Run MEROPS (BLASTp)</text>
</g>
<!-- merops_db&#45;&gt;merops -->
<g id="edge9" class="edge">
<title>merops_db&#45;&gt;merops</title>
<path fill="none" stroke="#000000" d="M359.3019,-258.3129C360.0935,-247.0716 361.1204,-232.4903 362.0121,-219.8279"/>
<polygon fill="#000000" stroke="#000000" points="365.51,-219.9796 362.7212,-209.7584 358.5273,-219.4877 365.51,-219.9796"/>
</g>
<!-- interpro -->
<g id="node8" class="node">
<title>interpro</title>
<polygon fill="#000000" stroke="#000000" points="238,-209.6 22,-209.6 22,-173.6 238,-173.6 238,-209.6"/>
<text text-anchor="middle" x="130" y="-188" font-family="Helvetica,sans-Serif" font-size="12.00" fill="#000000">Run InterProScan</text>
</g>
<!-- iprscan_db&#45;&gt;interpro -->
<g id="edge10" class="edge">
<title>iprscan_db&#45;&gt;interpro</title>
<path fill="none" stroke="#000000" d="M125.2724,-258.7313C126.0679,-247.4354 127.1092,-232.6487 128.012,-219.8289"/>
<polygon fill="#000000" stroke="#000000" points="131.5182,-219.8639 128.7294,-209.6427 124.5355,-219.3721 131.5182,-219.8639"/>
</g>
<!-- rbims -->
<g id="node12" class="node">
<title>rbims</title>
<polygon fill="#ffb6c1" stroke="#000000" points="589,-124.8 373,-124.8 373,-88.8 589,-88.8 589,-124.8"/>
<text text-anchor="middle" x="481" y="-103.2" font-family="Helvetica,sans-Serif" font-size="12.00" fill="#000000">Integrate annotations in RbiMs</text>
</g>
<!-- interpro&#45;&gt;rbims -->
<g id="edge11" class="edge">
<title>interpro&#45;&gt;rbims</title>
<path fill="none" stroke="#000000" d="M204.8678,-173.5123C261.0142,-159.9476 337.9156,-141.3685 396.3067,-127.2615"/>
<polygon fill="#000000" stroke="#000000" points="397.3489,-130.6105 406.2473,-124.8599 395.705,-123.8063 397.3489,-130.6105"/>
</g>
<!-- kofam&#45;&gt;rbims -->
<g id="edge12" class="edge">
<title>kofam&#45;&gt;rbims</title>
<path fill="none" stroke="#000000" d="M757.1322,-173.5123C700.9858,-159.9476 624.0844,-141.3685 565.6933,-127.2615"/>
<polygon fill="#000000" stroke="#000000" points="566.295,-123.8063 555.7527,-124.8599 564.6511,-130.6105 566.295,-123.8063"/>
</g>
<!-- dbcan&#45;&gt;rbims -->
<g id="edge13" class="edge">
<title>dbcan&#45;&gt;rbims</title>
<path fill="none" stroke="#000000" d="M572.9006,-173.4083C555.7816,-161.0007 532.924,-144.4338 514.2877,-130.9265"/>
<polygon fill="#000000" stroke="#000000" points="516.2089,-127.9963 506.0579,-124.9616 512.1009,-133.6642 516.2089,-127.9963"/>
</g>
<!-- merops&#45;&gt;rbims -->
<g id="edge14" class="edge">
<title>merops&#45;&gt;rbims</title>
<path fill="none" stroke="#000000" d="M389.0994,-173.4083C406.2184,-161.0007 429.076,-144.4338 447.7123,-130.9265"/>
<polygon fill="#000000" stroke="#000000" points="449.8991,-133.6642 455.9421,-124.9616 445.7911,-127.9963 449.8991,-133.6642"/>
</g>
<!-- analysis -->
<g id="node13" class="node">
<title>analysis</title>
<polygon fill="#ffb6c1" stroke="#000000" points="589,-52.7005 373,-52.7005 373,-16.0995 589,-16.0995 589,-52.7005"/>
<text text-anchor="middle" x="481" y="-38" font-family="Helvetica,sans-Serif" font-size="12.00" fill="#000000">Downstream analysis</text>
<text text-anchor="middle" x="481" y="-23.6" font-family="Helvetica,sans-Serif" font-size="12.00" fill="#000000">and visualization</text>
</g>
<!-- rbims&#45;&gt;analysis -->
<g id="edge15" class="edge">
<title>rbims&#45;&gt;analysis</title>
<path fill="none" stroke="#000000" d="M481,-88.5304C481,-80.7872 481,-71.5798 481,-62.9745"/>
<polygon fill="#000000" stroke="#000000" points="484.5001,-62.9155 481,-52.9156 477.5001,-62.9156 484.5001,-62.9155"/>
</g>
</g>
</svg>
